<svg width="420" height="150" viewBox="0 0 420 150" fill="none" xmlns="http://www.w3.org/2000/svg">
  <defs>
    <linearGradient id="cupBody" x1="0" y1="0" x2="0" y2="1">
      <stop offset="0%" stop-color="#ECD3B9"/>
      <stop offset="100%" stop-color="#D6B18F"/>
    </linearGradient>
    <linearGradient id="cupRim" x1="0" y1="0" x2="0" y2="1">
      <stop offset="0%" stop-color="#F5E6D6"/>
      <stop offset="100%" stop-color="#DEC1A3"/>
    </linearGradient>
    <linearGradient id="bookCover" x1="0" y1="0" x2="1" y2="1">
      <stop offset="0%" stop-color="#E6BF95"/>
      <stop offset="100%" stop-color="#C98F60"/>
    </linearGradient>
    <linearGradient id="leafFill" x1="0" y1="0" x2="1" y2="1">
      <stop offset="0%" stop-color="#C5B585"/>
      <stop offset="100%" stop-color="#9A8556"/>
    </linearGradient>
    <radialGradient id="shadowSoft" cx="0.5" cy="0.5" r="0.5">
      <stop offset="0%" stop-color="#BE9870" stop-opacity="0.28"/>
      <stop offset="100%" stop-color="#BE9870" stop-opacity="0"/>
    </radialGradient>
    <filter id="blurShadow" x="0" y="0" width="420" height="150" filterUnits="userSpaceOnUse" color-interpolation-filters="sRGB">
      <feGaussianBlur stdDeviation="7"/>
    </filter>
  </defs>

  <g opacity="0.78">
    <path d="M174 4C216 14 270 19 346 8" stroke="#F7EAD7" stroke-width="18" stroke-linecap="round"/>
    <path d="M265 1C302 8 339 11 393 4" stroke="#FBF1E3" stroke-width="12" stroke-linecap="round"/>
  </g>

  <ellipse cx="236" cy="127" rx="114" ry="13" fill="url(#shadowSoft)" filter="url(#blurShadow)"/>
  <ellipse cx="126" cy="126" rx="41" ry="10" fill="#D6AA7D" fill-opacity="0.9"/>

  <ellipse cx="126" cy="121" rx="36" ry="8" fill="#C79062"/>
  <g>
    <rect x="103" y="60" width="46" height="53" rx="12" fill="url(#cupBody)"/>
    <ellipse cx="126" cy="66" rx="24" ry="7" fill="url(#cupRim)"/>
    <ellipse cx="126" cy="69" rx="18" ry="4.5" fill="#5A3320"/>
    <path d="M149 73C158 73 162 77 162 84C162 91 158 96 150 96" stroke="#DDB997" stroke-width="4" stroke-linecap="round"/>
  </g>

  <g transform="rotate(14 240 86)">
    <rect x="183" y="49" width="132" height="76" rx="10" fill="url(#bookCover)"/>
    <path d="M198 58H289" stroke="#F2DEC8" stroke-width="2" stroke-linecap="round" opacity="0.7"/>
    <rect x="285" y="49" width="14" height="76" rx="6" fill="#B97E4D" fill-opacity="0.3"/>
    <path d="M216 49V125" stroke="#A36C43" stroke-opacity="0.22" stroke-width="2"/>
  </g>
  <g transform="rotate(14 241 89)" opacity="0.9">
    <rect x="186" y="53" width="132" height="76" rx="10" stroke="#EED8C0" stroke-width="1.2"/>
  </g>

  <g>
    <path d="M354 34C348 64 351 91 353 127" stroke="#8D7B56" stroke-width="2.2" stroke-linecap="round"/>
    <path d="M338 44C349 43 359 50 360 62C349 63 340 57 338 44Z" fill="url(#leafFill)"/>
    <path d="M365 49C375 47 384 53 387 64C377 66 367 60 365 49Z" fill="url(#leafFill)"/>
    <path d="M340 75C349 73 357 78 359 89C349 91 341 86 340 75Z" fill="url(#leafFill)"/>
    <path d="M364 84C372 82 379 87 381 97C372 99 365 95 364 84Z" fill="url(#leafFill)"/>
  </g>
</svg>
